<svg xmlns="http://www.w3.org/2000/svg" version="1.1" xmlns:xlink="http://www.w3.org/1999/xlink" xmlns:svgjs="http://svgjs.dev/svgjs" width="1958" height="2592"><svg width="1958" height="2592" viewBox="0 0 1958 2592" fill="none" xmlns="http://www.w3.org/2000/svg">
<path d="M1952.77 1042.38C1993.49 770.12 1786.21 623.77 1502.77 526.14L1594.72 157.34L1370.22 101.4L1280.71 460.49C1221.69 445.77 1161.08 431.9 1100.84 418.15L1191 56.69L966.64 0.75L874.64 369.43C825.8 358.31 777.83 347.32 731.29 335.74L731.55 334.58L421.96 257.27L362.24 497.05C362.24 497.05 528.8 535.23 525.29 537.58C616.2 560.27 632.64 620.45 629.91 668.15L525.17 1088.3C531.43 1089.89 539.55 1092.19 548.51 1095.79C541.02 1093.93 533.05 1091.9 524.78 1089.92L377.97 1678.49C366.86 1706.11 338.66 1747.56 275.1 1731.82C277.35 1735.08 111.93 1691.1 111.93 1691.1L0.469849 1948.08L292.62 2020.91C346.97 2034.54 400.23 2048.8 452.68 2062.21L359.78 2435.24L584.02 2491.18L676.02 2122.11C737.28 2138.74 796.73 2154.08 854.93 2168.54L763.24 2535.87L987.75 2591.81L1080.64 2219.48C1463.46 2291.93 1751.31 2262.72 1872.47 1916.46C1970.1 1637.68 1867.61 1476.88 1666.21 1372.02C1812.9 1338.19 1923.39 1241.71 1952.85 1042.41L1952.78 1042.36L1952.77 1042.38ZM1439.84 1761.64C1370.46 2040.42 901.08 1889.72 748.9 1851.93L872.18 1357.73C1024.35 1395.72 1512.35 1470.9 1439.85 1761.64H1439.84ZM1509.27 1038.34C1445.98 1291.92 1055.31 1163.09 928.58 1131.5L1040.35 683.29C1167.08 714.88 1575.2 773.84 1509.29 1038.34H1509.27Z" fill="#F7931A"></path>
</svg><style>@media (prefers-color-scheme: light) { :root { filter: none; } }
@media (prefers-color-scheme: dark) { :root { filter: none; } }
</style></svg>